Trial48_full_EMG.mot
version=1
nRows=32
nColumns=29
inDegrees=no
endheader
time	AddMag	AddLong	GlutMaxMed	GlutMed	Iliopsoas	Sartorius	SemiMemb	SemiTend	BicFemLong	RecFem	TenFascLat	Gracilis	BicFemShort	VastMed	VastLat	VastInt	GasMed	GasLat	TibAnt	TibPost	ExtHalLong	FlexHalLong	PeroneusLong	Sol	ExtDigLong	GlutMaxLat	FlexDigLong	RecFem2
45	0.00610352	-0.000915527	0.284424	0.00579834	0.00915527	0.0105286	-0.0180054	0.00244141	0.00427246	0.000457764	-0.0160217	-0.0323486	0.00213623	0.000305176	0.00274658	0.0102234	0.0563049	-0.0282288	0.136261	0.00274658	-0.233307	-0.00732422	-0.110016	-0.164032	0.0463867	-0.227966	-0.00152588	0.14328
45.001	0.0119019	0.00549316	0.218811	-0.00198364	0.00579834	0.0752258	-0.0157166	0.00701904	0.00442505	-0.00152588	-0.0241089	-0.0349426	0.0117493	0.0141907	-0.00411987	0.0126648	0.0666809	-0.0544739	0.0901794	-0.00106812	0.119171	-0.00732422	-0.127869	-0.166321	0.103455	-0.228729	-0.00411987	0.164795
45.002	0.00518799	0.00656128	0.123596	0.0088501	0.00823975	-0.0318909	-0.0163269	0.00289917	0.00778198	0.000762939	-0.0454712	-0.0386047	0.00518799	0.0120544	0.00900269	0.0012207	0.0785828	-0.0715637	0.154572	0.00778198	0.37384	-0.00793457	-0.159149	-0.149994	0.0906372	-0.214539	-0.00228882	0.175323
45.003	-0.00198364	0.00396729	0.055542	0.00564575	0.0100708	-0.0038147	-0.0123596	0.00305176	0.00579834	-0.00534058	-0.0241089	-0.019989	0.00946045	0.0146484	-0.0128174	0.0123596	0.0688171	-0.0642395	0.203552	0.00198364	0.0643921	-0.010376	-0.19455	-0.0881958	0.042572	-0.183258	-0.00350952	0.200806
45.004	-0.00488281	0.00732422	-0.0144958	0.00762939	0.00442505	-0.0219727	-0.00854492	0.0109863	0.00198364	-0.00183105	0.0109863	-0.00778198	0.0163269	0.0161743	0.000152588	0.00869751	0.0447083	-0.0387573	0.115356	0.00595093	-0.27298	-0.0112915	-0.143585	-0.0590515	0.00213623	-0.184021	-0.00213623	0.218658
45.005	-0.00518799	-0.00228882	-0.0567627	0.00640869	0.0115967	-0.00213623	-0.00366211	0.00671387	-0.00137329	-0.00152588	0.0260925	-0.0109863	0.00610352	0.0193787	-0.000610352	0.010376	0.0390625	-0.0128174	0.0212097	0.00900269	0.133514	-0.00839233	-0.0967407	-0.0457764	0.0152588	-0.203094	-0.00732422	0.2388
45.006	-0.00137329	0.00610352	-0.0828552	0.00747681	0.0135803	0.0234985	-0.0062561	-0.00366211	0.00656128	-0.00732422	-0.0299072	-0.0126648	0.00350952	0.0143433	0.00198364	0.0050354	0.0254822	0.0062561	-0.068512	0.0120544	0.101929	-0.0117493	-0.0648499	-0.0471497	-0.0102234	-0.210266	-0.00259399	0.181122
45.007	-0.00640869	0.00701904	-0.120239	0.0088501	0.0109863	0.107574	-0.00167847	0.00457764	0.00595093	-0.00991821	-0.0442505	0.00488281	0.0115967	0.0131226	-0.00549316	0.00305176	0.0239563	0.0111389	-0.0163269	0.0038147	0.25177	-0.00274658	-0.0436401	-0.0384521	-0.0408936	-0.234375	-0.00488281	0.10376
45.008	-0.0177002	0.00747681	-0.19165	0.0146484	0.0119019	0.148163	0.00900269	0.000610352	0.00366211	-0.00198364	-0.03479	0.0132751	0.00854492	0.0205994	-0.00762939	0.0221252	0.0279236	0.00640869	0.0569153	0.00442505	0.272522	-0.0120544	-0.0453186	-0.000152588	0.00747681	-0.274353	-0.000762939	0.0531006
45.009	-0.0267029	0.00350952	-0.288086	0.00900269	0.0152588	0.0134277	0.00274658	-0.00579834	0.00549316	-0.0106812	-0.0102234	0.00808716	0.00808716	0.00686646	0.0012207	0.00167847	0.0416565	-0.00335693	0.0909424	0.00244141	0.0418091	-0.00823975	-0.093689	0.0418091	-0.0128174	-0.324707	-0.00411987	0.043335
45.01	-0.0318909	0.000610352	-0.374603	0.0117493	0.00350952	-0.0238037	-0.000457764	-0.00167847	0.0088501	-0.0125122	-0.0282288	-0.00427246	-0.00305176	0.0115967	-0.00732422	0.00640869	0.0367737	-0.00411987	0.126801	0.00854492	0.140686	-0.0157166	-0.0914001	0.0512695	0.0177002	-0.273743	-0.00198364	0.0309753
45.011	-0.019989	0.00579834	-0.527496	0.00457764	0.0108337	-0.0218201	0.0012207	-0.00259399	0.00640869	-0.00732422	-0.0335693	-0.00228882	-0.0062561	0.0141907	0.0012207	-0.000610352	0.0338745	-0.00762939	0.188904	0.00335693	-0.0765991	-0.00976563	-0.101471	0.0950623	0.0360107	-0.23819	-0.00335693	0.0566101
45.012	0.00595093	0.0102234	-0.690765	0.0109863	0.0135803	-0.183105	-0.00228882	-0.00228882	0.00549316	-0.000915527	0.0296021	-0.0283813	-0.00579834	0.0164795	-0.00213623	0.00244141	0.0306702	-0.0184631	0.205078	0.0050354	0.109863	-0.0126648	-0.103455	0.0895691	0.0300598	-0.215302	-0.00183105	0.0697327
45.013	0.0135803	0.0111389	-0.752411	0.0144958	0.0115967	-0.128326	-0.0050354	0.00213623	0.00686646	-0.0088501	0.106049	-0.0904846	-0.000305176	0.0126648	-0.00213623	-0.00366211	0.0187683	0.000457764	0.232086	0.0012207	0.0752258	-0.012207	-0.0682068	0.102997	0.00717163	-0.19928	-0.00396729	0.0997925
45.014	0.0346375	0.00534058	-0.811005	0.0137329	0.0120544	0.057373	-0.00961304	-0.00228882	0.00488281	-0.00549316	0.0686646	-0.122528	0.0109863	0.00762939	-0.00259399	-0.00244141	0.019989	-0.00534058	0.293121	0.00183105	0.0149536	-0.0134277	-0.0306702	0.106201	-0.0143433	-0.241852	-0.00335693	0.135651
45.015	0.0531006	0.00488281	-0.818939	0.0119019	0.0100708	-0.0326538	-0.0134277	0.00564575	0.00198364	-0.0012207	0.0509644	-0.124969	0.00686646	0.0218201	-0.00305176	0.0141907	0.0183105	-0.000305176	0.258942	0.000762939	0.085907	-0.0140381	-0.0144958	0.137787	-0.00762939	-0.258331	-0.00274658	0.145111
45.016	0.0653076	0.00411987	-0.76416	0.0105286	0.00457764	0.0198364	-0.0166321	0.00244141	0.00366211	-0.00244141	0.0393677	-0.137634	0.0175476	0.0283813	-0.00778198	0.0050354	-0.000915527	0.0175476	0.222168	0.00442505	-0.251617	-0.0190735	-0.00991821	0.18219	0.00717163	-0.29007	-0.00152588	0.14328
45.017	0.0627136	0.00610352	-0.731506	0.00839233	0.0112915	0.0291443	-0.0140381	0.00564575	0.00274658	0.00259399	0.0299072	-0.111237	0.0157166	0.0186157	-0.00747681	0.0187683	-0.000915527	0.0161743	0.122375	0.00656128	0.137024	-0.0190735	0.00335693	0.206757	0.00656128	-0.268707	-0.00305176	0.167084
45.018	0.0628662	0.00228882	-0.791779	0.00610352	0.00778198	-0.0172424	-0.012207	0.00289917	0.00701904	0.00305176	0.0131226	-0.0605774	0.0128174	0.0126648	-0.00213623	0.00549316	0.000305176	0.022583	0.0492859	0.00183105	0.0619507	-0.0202942	0.035553	0.180054	-0.0419617	-0.279694	-0.00488281	0.165253
45.019	0.0556946	0.00717163	-0.766907	-0.000305176	0.00579834	0.0393677	-0.00671387	0.00350952	0.00640869	0.0151062	-0.000610352	-0.0120544	0.00244141	0.0202942	0.000610352	0.020752	0.0106812	0.0325012	0.0285339	0	-0.0695801	-0.0152588	0.0619507	0.147858	-0.0326538	-0.28656	-0.00366211	0.170441
45.02	0.0520325	0.00595093	-0.579681	0.00701904	0.0119019	0.0366211	-0.0050354	0.00152588	0.00656128	0.00534058	0.00396729	0.00198364	-0.00366211	0.0152588	-0.00488281	0.0144958	-0.00335693	0.0411987	-0.0234985	-0.00335693	-0.385742	-0.0218201	0.0631714	0.114746	0.00595093	-0.287018	-0.00274658	0.166321
45.021	0.0447083	0.00427246	-0.472412	-0.00137329	0.0152588	0.0112915	0.00457764	-0.00198364	0.00396729	0.0115967	0.0222778	0.0357056	0.00640869	0.0161743	-0.00167847	0	0.00610352	0.0256348	-0.0430298	0.00137329	0.0605774	-0.0198364	0.0012207	0.0611877	0.0332642	-0.313873	-0.0038147	0.123749
45.022	0.0447083	0.00534058	-0.411224	0.00289917	0.00427246	0.0564575	0.00457764	0.00457764	0.00396729	0.00839233	0.00595093	0.0584412	-0.00640869	0.0193787	-0.00259399	-0.00259399	0.0115967	0.0247192	-0.0772095	0.00137329	-0.0410461	-0.0221252	-0.045929	0.0488281	0.0587463	-0.290527	-0.00259399	0.114594
45.023	0.0222778	0.00442505	-0.397797	0.00488281	0.00869751	0.0593567	0.0109863	0.000915527	0.00762939	0.0141907	-0.0440979	0.0465393	-0.00366211	0.0215149	-0.00610352	-0.00289917	0.0144958	0.0038147	-0.2034	0.00289917	-0.16449	-0.017395	-0.0588989	0.0601196	0.0189209	-0.293427	-0.00167847	0.0921631
45.024	0.0221252	0.00686646	-0.474243	0.0088501	0.00762939	-0.0619507	0.0201416	0.00289917	0.00442505	0.00335693	-0.107269	0.0558472	-0.0050354	0.0169373	0.00228882	0.00732422	0.0294495	-0.0128174	-0.264893	0.00198364	0.0224304	-0.0141907	-0.015564	0.0379944	-0.0216675	-0.293427	-0.00228882	0.0714111
45.025	0.0187683	0.0100708	-0.537415	-0.0135803	0.00427246	-0.00457764	0.032196	0.00244141	0.00732422	0.0119019	-0.159454	0.0700378	0.00442505	0.0140381	-0.00183105	-0.00442505	0.0233459	-0.00350952	-0.209198	-0.000457764	0.153809	-0.0143433	-0.0100708	0.0253296	-0.0892639	-0.283203	-0.000457764	0.0486755
45.026	0.00717163	0.00274658	-0.643768	0.00289917	0.00610352	0.0369263	0.0450134	-0.000305176	0.00869751	0.0184631	-0.127411	0.0749207	0.0109863	0.0100708	-0.00289917	0.0109863	0.0236511	-0.0062561	-0.100861	0.000915527	0.032959	-0.0088501	0.0152588	0.0123596	-0.0883484	-0.301514	-0.00183105	0.0393677
45.027	-0.0137329	0.00442505	-0.807648	0.00183105	0.00595093	0.00686646	0.0460815	0.000152588	0.0062561	0.0183105	-0.0582886	0.0662231	0.00701904	0.0167847	-0.00244141	0.00427246	0.0224304	0.000457764	-0.0294495	0	-0.00320435	-0.0102234	0.035553	0.00915527	0.00793457	-0.292358	0.00167847	0.0248718
45.028	-0.0338745	-0.00167847	-0.970306	0.0166321	0.00518799	0.0338745	0.0334167	0.00244141	0.0038147	0.0114441	0.0332642	0.0474548	0.00930786	0.0170898	-0.00274658	0.00869751	0.0242615	0.00564575	0.0616455	-0.000610352	0.150452	-0.00579834	0.0305176	-0.00320435	0.0230408	-0.286407	0.000152588	-0.0151062
45.029	-0.0491333	0.00366211	-1.06201	0.01297	0.00198364	0.0874329	0.0312805	-0.000152588	0.00717163	0.00610352	0.201569	0.0466919	0.00747681	0.00595093	-0.00244141	0.00686646	0.030365	-0.00823975	0.211487	-0.00305176	-0.236053	-0.00152588	0.0242615	-0.0343323	0.00793457	-0.287476	-0.00778198	-0.0190735
45.03	-0.0527954	0.00411987	-1.11725	0.0279236	-0.0038147	0.0590515	0.0367737	-0.00213623	0.0141907	0.00762939	0.269775	0.0546265	0.00427246	0.00900269	0.00137329	0.00839233	0.0357056	-0.00854492	0.221405	0.000915527	-0.0445557	-0.00595093	0.015564	-0.0325012	-0.0669861	-0.263824	-0.00213623	-0.0114441
45.031	-0.0588989	0.00610352	-1.17691	0.00762939	0.00289917	-0.0614929	0.0434875	-0.00244141	0.00152588	0.00595093	0.158081	0.0570679	0.0178528	0.00747681	-0.00274658	0.00167847	0.0343323	0	0.116425	-0.000610352	-0.0144958	-0.00198364	0.015564	-0.0332642	-0.00793457	-0.253448	0.0062561	-0.0114441
